<?xml version="1.0" standalone="no"?><!DOCTYPE svg PUBLIC "-//W3C//DTD SVG 1.1//EN" "http://www.w3.org/Graphics/SVG/1.1/DTD/svg11.dtd"><svg t="1559721964670" class="icon" style="" viewBox="0 0 1024 1024" version="1.1" xmlns="http://www.w3.org/2000/svg" p-id="6766" xmlns:xlink="http://www.w3.org/1999/xlink" width="200" height="200"><defs><style type="text/css"></style></defs><path d="M 333.741 957.648 H 110.917 v 66.352 h 802.166 v -66.352 Z M 957.648 0 h -891.296 A 66.352 66.352 0 0 0 0 66.352 V 693.23 a 66.352 66.352 0 0 0 66.352 66.352 h 891.296 a 66.352 66.352 0 0 0 66.352 -66.352 V 66.352 A 66.352 66.352 0 0 0 957.648 0 Z m 8.91296 673.424 a 22.7776 22.7776 0 0 1 -22.7776 19.8066 H 80.2166 a 22.7776 22.7776 0 0 1 -22.7776 -19.8066 v -594.197 A 22.7776 22.7776 0 0 1 80.2166 60.4101 h 863.567 a 22.7776 22.7776 0 0 1 22.7776 22.7776 Z M 707.095 901.199 v -63.381 H 329.78 v 63.381 Z M 653.617 144.588 H 594.197 V 594.197 h 59.4197 Z m 198.066 74.2747 H 792.263 v 381.277 h 63.381 Z m -406.035 70.3133 h -63.381 V 594.197 h 63.381 Z m -198.066 75.265 h -63.381 V 594.197 h 63.381 Z m 0 0" fill="" p-id="6767"></path></svg>