<?xml version="1.0" standalone="no"?><!DOCTYPE svg PUBLIC "-//W3C//DTD SVG 1.1//EN" "http://www.w3.org/Graphics/SVG/1.1/DTD/svg11.dtd"><svg t="1560490631169" class="icon" style="" viewBox="0 0 1024 1024" version="1.1" xmlns="http://www.w3.org/2000/svg" p-id="2019" xmlns:xlink="http://www.w3.org/1999/xlink" width="200" height="200"><defs><style type="text/css"></style></defs><path d="M510.72 9.984c-276.992 0-501.76 224.768-501.76 501.76s224.768 501.76 501.76 501.76 501.76-224.768 501.76-501.76-224.768-501.76-501.76-501.76z m230.912 636.672c-10.496 5.376-26.88-6.912-42.496-29.952-6.144 25.088-21.248 47.616-42.752 65.792 22.784 8.448 37.376 22.016 37.376 37.632 0 25.344-40.192 46.08-89.6 46.08-44.544 0-81.664-16.896-88.32-38.656h-10.752c-6.912 22.016-43.776 38.656-88.32 38.656-49.408 0-89.6-20.48-89.6-46.08 0-15.616 14.848-29.184 37.376-37.632-21.504-18.176-36.864-40.96-42.752-65.792-15.36 23.04-32 35.584-42.496 29.952-15.36-7.936-12.288-50.688 6.912-95.488 14.848-35.072 35.328-61.184 50.688-66.816-0.256-2.304-0.256-4.608-0.256-6.656 0-13.568 3.84-26.112 10.24-36.352v-2.304c0-6.144 1.536-12.032 4.096-17.152 3.84-91.392 63.488-164.096 159.744-164.096 96.256 0 155.904 72.704 159.744 164.096 2.56 5.12 4.096 11.008 4.096 17.152v2.304c6.4 10.24 10.24 22.784 10.24 36.352 0 2.304 0 4.608-0.256 6.656 15.616 5.632 35.84 31.744 50.688 66.816 18.688 44.8 21.76 87.552 6.4 95.488z" fill="#378AFE" p-id="2020"></path></svg>